<?xml version="1.0" encoding="UTF-8"?>
<svg id="Layer_2" xmlns="http://www.w3.org/2000/svg" viewBox="0 0 96.21 96.21">
  <defs>
    <style>
      .cls-1, .cls-2 {
        fill: #0070f2;
      }

      .cls-2 {
        opacity: 0;
      }
    </style>
  </defs>
  <g id="Icons_16px">
    <g id="da">
      <rect class="cls-2" y="0" width="96.21" height="96.21"/>
      <path id="da-2" data-name="da" class="cls-1" d="M48.1,96.21c-1.55,0-3-.74-3.9-2L.91,34.08c-1.24-1.73-1.2-4.07.1-5.75L21.45,1.87c.91-1.18,2.32-1.87,3.81-1.87h48.1c1.59,0,3.08.79,3.97,2.1l18.04,26.46c1.14,1.67,1.11,3.88-.07,5.52l-43.29,60.13c-.9,1.26-2.36,2-3.9,2ZM10.81,31.37l37.29,51.8,37.42-51.97-14.71-21.57H27.62L10.81,31.37ZM70.74,35.06c-6.52,2.2-9.42,5.1-11.63,11.62-.64,1.89-3.33,1.89-3.97,0-2.21-6.52-5.11-9.42-11.63-11.62-1.9-.64-1.9-3.35,0-3.99,6.52-2.2,9.42-5.1,11.63-11.62.64-1.89,3.33-1.89,3.97,0,2.21,6.52,5.11,9.42,11.63,11.62,1.9.64,1.9,3.35,0,3.99Z"/>
    </g>
  </g>
</svg>