<?xml version="1.0" encoding="UTF-8"?>
<svg id="Layer_2" xmlns="http://www.w3.org/2000/svg" viewBox="0 0 96.21 96.21">
  <defs>
    <style>
      .cls-1, .cls-2 {
        fill: #0070f2;
      }

      .cls-2 {
        opacity: 0;
      }
    </style>
  </defs>
  <g id="Icons_16px">
    <g id="product">
      <rect class="cls-2" y="0" width="96.21" height="96.21"/>
      <path class="cls-1" d="M48.24,96.21c-.66,0-1.32-.13-1.95-.41-.18-.08-.36-.18-.54-.28l-37.3-21.56c-1.49-.86-2.4-2.45-2.4-4.16V30.61c-.22-1.74.52-3.54,2.06-4.59l19.24-13.12c1.57-1.07,3.62-1.12,5.24-.12l31.48,19.48c1.43.88,2.29,2.45,2.28,4.13l-.15,20.91c-.02,2.66-2.2,4.81-4.84,4.78-2.66-.02-4.8-2.19-4.78-4.84l.13-18.21-26.53-16.41-14.52,9.9v34.5l32.56,18.83,32.34-18.82V29.3L45.68,8.97c-2.3-1.34-3.07-4.28-1.73-6.58,1.34-2.3,4.28-3.07,6.58-1.73l37.28,21.72c1.48.86,2.39,2.44,2.39,4.16v43.26c0,1.71-.91,3.3-2.39,4.16l-37.06,21.57c-.17.1-.35.2-.53.28-.64.29-1.35.43-1.98.42ZM41.36,68.55c-.82,0-1.64-.21-2.4-.65l-12.5-7.22c-2.3-1.33-3.09-4.27-1.76-6.57,1.33-2.3,4.27-3.09,6.57-1.76l12.5,7.22c2.3,1.33,3.09,4.27,1.76,6.57-.89,1.54-2.51,2.41-4.17,2.41Z"/>
    </g>
  </g>
</svg>