<?xml version="1.0" encoding="UTF-8"?>
<svg id="Layer_2" data-name="Layer 2" xmlns="http://www.w3.org/2000/svg" viewBox="0 0 96.21 96.21">
  <defs>
    <style>
      .cls-1, .cls-2 {
        fill: #0070f2;
      }

      .cls-2 {
        opacity: 0;
      }
    </style>
  </defs>
  <g id="Icons_16px" data-name="Icons 16px">
    <g id="security-check">
      <rect class="cls-2" width="96.21" height="96.21"/>
      <g>
        <path class="cls-1" d="M42.23,74.5h-22.37c-2.29,0-4.15-1.86-4.15-4.09v-26.64c0-2.29,1.86-4.09,4.15-4.09h44.68c2.29,0,4.15,1.86,4.15,4.09v16.36c0,2.59,2.16,4.75,4.75,4.75s4.75-2.16,4.75-4.75v-16.42c0-6.86-5.05-12.51-11.61-13.53v-6.19c0-13.23-10.76-23.99-24.05-23.99s-24.05,10.76-24.05,23.99v6.13c-6.98.66-12.45,6.55-12.45,13.65v26.64c0,7.58,6.19,13.71,13.77,13.71h22.43c2.65,0,4.81-2.16,4.81-4.81s-2.16-4.81-4.81-4.81ZM28.16,23.99c0-7.94,6.49-14.37,14.43-14.37s14.43,6.43,14.43,14.37v6.13h-28.86v-6.13Z"/>
        <circle class="cls-1" cx="42.17" cy="57.06" r="9.02"/>
        <path class="cls-1" d="M88.53,67.29c-2.04-1.74-5.05-1.5-6.79.48l-14.07,16.36-5.17-5.65c-1.8-1.98-4.81-2.1-6.79-.3s-2.1,4.81-.3,6.79l8.84,9.62c.9,1.02,2.22,1.56,3.55,1.56v.06h.06c1.32-.06,2.65-.66,3.55-1.68l17.62-20.44c1.74-2.04,1.5-5.05-.48-6.79Z"/>
      </g>
    </g>
  </g>
</svg>