<?xml version="1.0" encoding="UTF-8"?>
<svg id="Layer_2" xmlns="http://www.w3.org/2000/svg" viewBox="0 0 96.21 96.21">
  <defs>
    <style>
      .cls-1, .cls-2 {
        fill: #0070f2;
      }

      .cls-2 {
        opacity: 0;
      }
    </style>
  </defs>
  <g id="Icons_16px">
    <g id="globe">
      <rect class="cls-2" y="0" width="96.21" height="96.21"/>
      <path class="cls-1" d="M48.1,0C21.58,0,0,21.57,0,48.1s21.58,48.09,48.1,48.09,48.11-21.57,48.11-48.09S74.63,0,48.1,0ZM43.31,86.24c-18.96-2.37-33.69-18.55-33.69-38.14,0-2.81.32-5.54.9-8.18l20.89,22.25c.44,3.73,2.11,7.18,4.82,9.89,2.04,1.99,4.47,3.41,7.08,4.2v9.97ZM75.46,75.12c-2.5-5.28-7.86-8.97-14.1-8.97h-1.2v-13.23c0-2.66-2.16-4.81-4.81-4.81h-15.79l-10.02-12.02h7.77c2.65,0,4.81-2.16,4.81-4.81v-7.21h13.23c2.65,0,4.81-2.16,4.81-4.81v-7.68c15.33,5.07,26.44,19.51,26.44,36.52,0,10.52-4.26,20.07-11.13,27.02Z"/>
    </g>
  </g>
</svg>