<?xml version="1.0" encoding="UTF-8"?>
<svg id="Layer_2" xmlns="http://www.w3.org/2000/svg" viewBox="0 0 96.21 96.21">
  <defs>
    <style>
      .cls-1, .cls-2 {
        fill: #0070f2;
      }

      .cls-2 {
        opacity: 0;
      }
    </style>
  </defs>
  <g id="Icons_16px">
    <g id="dimension">
      <rect class="cls-2" y="0" width="96.21" height="96.21"/>
      <path class="cls-1" d="M40.89,96.21c-1.1,0-2.18-.38-3.05-1.09-1.11-.91-1.76-2.28-1.76-3.72v-40.41c0-2.29,1.62-4.27,3.87-4.72l50.51-10.1c1.41-.28,2.88.08,3.99,1,1.11.91,1.76,2.28,1.76,3.72v40.41c0,2.29-1.62,4.27-3.87,4.72l-50.51,10.1c-.31.06-.63.09-.94.09ZM45.7,54.94v30.6l40.89-8.18v-30.6l-40.89,8.18Z"/>
      <path class="cls-1" d="M22.85,78.17c-2.66,0-4.81-2.15-4.81-4.81v-40.41c0-2.29,1.62-4.27,3.87-4.72l50.51-10.1c2.61-.52,5.14,1.17,5.66,3.77.52,2.61-1.17,5.14-3.77,5.66l-46.64,9.33v36.46c0,2.66-2.15,4.81-4.81,4.81ZM4.81,60.13c-2.66,0-4.81-2.15-4.81-4.81V14.91c0-2.29,1.62-4.27,3.87-4.72L54.38.09c2.61-.52,5.14,1.17,5.66,3.77.52,2.61-1.17,5.14-3.77,5.66L9.62,18.86v36.46c0,2.66-2.15,4.81-4.81,4.81Z"/>
    </g>
  </g>
</svg>