<?xml version="1.0" encoding="UTF-8"?>
<svg id="Layer_2" xmlns="http://www.w3.org/2000/svg" viewBox="0 0 96.21 96.21">
  <defs>
    <style>
      .cls-1, .cls-2 {
        fill: #0070f2;
      }

      .cls-2 {
        opacity: 0;
      }
    </style>
  </defs>
  <g id="Icons_16px">
    <g id="group">
      <rect class="cls-2" y="0" width="96.21" height="96.21"/>
      <path class="cls-1" d="M29.47,78.17H4.81c-2.66,0-4.81-2.15-4.81-4.81v-14.43c0-7.4,4.81-13.71,11.46-15.96-3.36-3.28-5.45-7.85-5.45-12.91,0-9.95,8.09-18.04,18.04-18.04s18.04,8.09,18.04,18.04c0,5.5-2.48,10.44-6.38,13.75,4.41,2.17,7.76,6.25,8.93,11.33.41,1.78-.22,3.64-1.64,4.8-4.57,3.75-7.71,8.86-8.83,14.37-.46,2.24-2.43,3.85-4.71,3.85ZM9.62,68.55h16.16c1.69-5.07,4.59-9.75,8.46-13.63-1.3-1.97-3.51-3.21-5.99-3.21h-11.42c-3.98,0-7.22,3.24-7.22,7.22v9.62ZM24.05,21.65c-4.64,0-8.42,3.78-8.42,8.42s3.78,8.42,8.42,8.42,8.42-3.78,8.42-8.42-3.78-8.42-8.42-8.42Z"/>
      <path class="cls-1" d="M91.4,90.2H28.86c-2.66,0-4.81-2.15-4.81-4.81v-6.01c0-13.88,8.15-25.9,19.92-31.5-4.85-4.4-7.9-10.75-7.9-17.8s3.12-13.82,8.55-18.4c5.45-4.59,12.67-6.51,19.81-5.28,9.77,1.74,17.73,9.71,19.38,19.39,1.23,7.13-.7,14.35-5.28,19.8-.69.82-1.44,1.59-2.22,2.31,11.76,5.61,19.9,17.62,19.9,31.5v6.01c0,2.66-2.15,4.81-4.81,4.81ZM33.67,80.58h52.91v-1.2c0-13.93-11.33-25.26-25.25-25.26h-2.41c-13.93,0-25.25,11.33-25.25,25.26v1.2ZM60.13,44.5c4.27,0,8.3-1.87,11.04-5.13,2.8-3.32,3.92-7.57,3.16-11.98-.98-5.76-5.73-10.5-11.56-11.53-4.38-.76-8.63.37-11.95,3.16-3.26,2.74-5.12,6.77-5.12,11.04,0,7.96,6.47,14.43,14.43,14.43Z"/>
    </g>
  </g>
</svg>