<?xml version="1.0" encoding="UTF-8"?>
<svg id="Layer_2" xmlns="http://www.w3.org/2000/svg" viewBox="0 0 96.21 96.21">
  <defs>
    <style>
      .cls-1, .cls-2 {
        fill: #0070f2;
      }

      .cls-2 {
        opacity: 0;
      }
    </style>
  </defs>
  <g id="Icons_16px">
    <g id="cloud">
      <rect class="cls-2" x="0" y="0" width="96.21" height="96.21"/>
      <path class="cls-1" d="M71.22,84.18H21.15c-11.66,0-21.15-9.49-21.15-21.15,0-10.6,7.84-19.4,18.03-20.92,0-.37,0-.73,0-1.1,0-15.98,13-28.99,28.99-28.99,12.25,0,22.96,7.62,27.12,18.91,12.62,2.28,22.06,13.26,22.06,26.37,0,9.13-4.6,17.55-12.3,22.54-3.44,2.75-7.96,4.34-12.69,4.34ZM21.15,51.51c-6.36,0-11.53,5.17-11.53,11.53s5.17,11.53,11.53,11.53h50.07c3.22,0,5.63-1.38,7.09-2.53,5.32-3.47,8.28-8.88,8.28-14.73,0-9.14-7.19-16.68-16.37-17.16-2.13-.11-3.93-1.61-4.43-3.67-2.11-8.73-9.82-14.82-18.76-14.82-10.68,0-19.37,8.69-19.37,19.37,0,1.69-.06,3.33-.12,4.92l-.03.93c-.09,2.59-2.22,4.64-4.81,4.64h-1.55Z"/>
    </g>
  </g>
</svg>