<?xml version="1.0" encoding="UTF-8"?>
<svg id="Layer_2" xmlns="http://www.w3.org/2000/svg" viewBox="0 0 96.21 96.21">
  <defs>
    <style>
      .cls-1, .cls-2 {
        fill: #0070f2;
      }

      .cls-2 {
        opacity: 0;
      }
    </style>
  </defs>
  <g id="Icons_16px">
    <g id="desktop-mobile">
      <rect class="cls-2" width="96.21" height="96.21"/>
      <path class="cls-1" d="M91.4,90.2h-20.44c-2.66,0-4.81-2.15-4.81-4.81v-38.48c0-2.66,2.15-4.81,4.81-4.81h20.44c2.66,0,4.81,2.15,4.81,4.81v38.48c0,2.66-2.15,4.81-4.81,4.81ZM75.77,74.56h10.82v-22.85h-10.82v22.85Z"/>
      <path class="cls-1" d="M49.31,84.18h-20.44c-2.66,0-4.81-2.15-4.81-4.81s2.15-4.81,4.81-4.81h7.22v-8.42H10.82c-5.97,0-10.82-4.86-10.82-10.82V16.84C0,10.77,4.75,6.01,10.82,6.01h62.54c5.97,0,10.82,4.86,10.82,10.82v8.4c0,2.66-2.15,4.81-4.81,4.81s-4.81-2.15-4.81-4.81v-8.4c0-.69-.52-1.2-1.2-1.2H10.82c-.71,0-1.2.49-1.2,1.2v38.48c0,.69.52,1.2,1.2,1.2h38.47c2.66,0,4.81,2.15,4.81,4.81s-2.15,4.81-4.81,4.81h-3.59v8.42h3.61c2.66,0,4.81,2.15,4.81,4.81s-2.15,4.81-4.81,4.81Z"/>
    </g>
  </g>
</svg>