<?xml version="1.0" encoding="UTF-8"?>
<svg id="Layer_2" xmlns="http://www.w3.org/2000/svg" viewBox="0 0 96.21 96.21">
  <defs>
    <style>
      .cls-1, .cls-2 {
        fill: #0070f2;
      }

      .cls-2 {
        opacity: 0;
      }
    </style>
  </defs>
  <g id="Icons_16px">
    <g id="exit-full-screen">
      <rect class="cls-2" x="0" y="0" width="96.21" height="96.21"/>
      <path class="cls-1" d="M4.81,96.21c-1.23,0-2.46-.47-3.4-1.41-1.88-1.88-1.88-4.92,0-6.8l18.25-18.25h-8.83c-2.66,0-4.81-2.15-4.81-4.81s2.15-4.81,4.81-4.81h20.44c2.66,0,4.81,2.15,4.81,4.81v20.44c0,2.66-2.15,4.81-4.81,4.81s-4.81-2.15-4.81-4.81v-8.83l-18.25,18.25c-.94.94-2.17,1.41-3.4,1.41ZM79.37,90.2h-26.46c-2.66,0-4.81-2.15-4.81-4.81s2.15-4.81,4.81-4.81h26.46c.66,0,1.2-.54,1.2-1.2v-26.46c0-2.66,2.15-4.81,4.81-4.81s4.81,2.15,4.81,4.81v26.46c0,5.97-4.86,10.82-10.82,10.82ZM10.82,48.11c-2.66,0-4.81-2.15-4.81-4.81v-26.46c0-5.97,4.86-10.82,10.82-10.82h26.46c2.66,0,4.81,2.15,4.81,4.81s-2.15,4.81-4.81,4.81h-26.46c-.66,0-1.2.54-1.2,1.2v26.46c0,2.66-2.15,4.81-4.81,4.81ZM85.39,36.08h-20.44c-2.66,0-4.81-2.15-4.81-4.81V10.82c0-2.66,2.15-4.81,4.81-4.81s4.81,2.15,4.81,4.81v8.83L88,1.41c1.88-1.88,4.92-1.88,6.8,0,1.88,1.88,1.88,4.92,0,6.8l-18.25,18.25h8.83c2.66,0,4.81,2.15,4.81,4.81s-2.15,4.81-4.81,4.81Z"/>
    </g>
  </g>
</svg>