<?xml version="1.0" encoding="UTF-8"?>
<svg id="Layer_2" xmlns="http://www.w3.org/2000/svg" viewBox="0 0 96.21 96.21">
  <defs>
    <style>
      .cls-1, .cls-2 {
        fill: #0070f2;
      }

      .cls-2 {
        opacity: 0;
      }
    </style>
  </defs>
  <g id="Icons_16px">
    <g id="past">
      <rect class="cls-2" x="0" y="0" width="96.21" height="96.21"/>
      <path class="cls-1" d="M50.9,96.21c-2.47,0-4.57-1.89-4.79-4.4-.23-2.65,1.73-4.98,4.38-5.21,20.58-1.77,36.09-18.29,36.09-38.42,0-21.27-17.82-38.57-39.72-38.57-14.54,0-27.65,7.53-34.55,19.3h18.95c2.66,0,4.81,2.15,4.81,4.81s-2.15,4.81-4.81,4.81H4.92c-.3,0-.61-.01-.92-.07-.57-.1-1.1-.29-1.58-.57-.62-.35-1.14-.83-1.53-1.39-.4-.56-.68-1.22-.81-1.93-.06-.32-.08-.64-.08-.97V5.03C0,2.37,2.16.22,4.81.22s4.81,2.15,4.81,4.81v11.36C18.77,6.2,32.25,0,46.87,0c27.21,0,49.34,21.62,49.34,48.19,0,25.16-19.3,45.8-44.89,48-.14.01-.28.02-.42.02ZM34.07,94.03c-.46,0-.93-.07-1.4-.21-5.74-1.74-10.85-4.55-14.78-8.14-1.96-1.79-2.1-4.83-.31-6.8,1.79-1.96,4.83-2.1,6.8-.31,2.83,2.59,6.77,4.73,11.08,6.04,2.54.77,3.98,3.46,3.21,6-.63,2.08-2.54,3.42-4.6,3.42ZM9.28,71.99c-1.86,0-3.62-1.08-4.41-2.89-2.26-5.2-3.78-9.98-4.78-15.03-.51-2.61,1.18-5.14,3.79-5.65,2.61-.51,5.14,1.18,5.65,3.79.86,4.36,2.18,8.51,4.16,13.05,1.06,2.44-.06,5.27-2.49,6.33-.62.27-1.28.4-1.92.4ZM30.68,69.96c-1.3,0-2.59-.52-3.53-1.55-1.8-1.95-1.68-4.99.27-6.8l17.15-15.85c.89-.82,2.05-1.28,3.26-1.28h20.54c2.66,0,4.81,2.15,4.81,4.81s-2.15,4.81-4.81,4.81h-18.65l-15.77,14.57c-.93.85-2.1,1.28-3.26,1.28Z"/>
    </g>
  </g>
</svg>